#!OML:ASF H:\Terrain\Patient Classification 1\Takeo\Monday\TakeoMonday.ASF
:FULLY-SPECIFIED
:DEGREES
423
root 10.9135 17.4842 -2.44489 17.1445 -25.4663 -7.59662
lowerback 17.2476 0.8003 1.0126
upperback 8.73817 1.01744 -0.654931
thorax -0.309979 0.484929 -1.43255
lowerneck -9.76859 6.77651 0.760234
upperneck -15.5341 8.60647 -4.45042
head -3.13082 4.36522 -1.54239
rclavicle 3.10104e-014 -4.92986e-014
rhumerus 25.2268 53.2346 -89.1687
rradius 39.6581
rwrist -36.7801
rhand -39.3662 5.38351
rfingers 7.12502
rthumb -12.3567 -24.2313
lclavicle 3.10104e-014 -4.92986e-014
lhumerus 32.8266 -5.13673 86.896
lradius 34.3677
lwrist 47.3049
lhand -37.5873 34.654
lfingers 7.12502
lthumb -10.6412 64.3646
rfemur -14.403 2.68453 22.981
rtibia 21.69
rfoot -18.4479 -14.8056
rtoes -6.7795
lfemur -43.3106 14.7877 -19.1023
ltibia 37.04
lfoot -5.16735 5.14599
ltoes 2.40407
424
root 10.9307 17.4771 -2.41628 17.725 -25.6958 -7.69817
lowerback 17.4423 0.762837 0.579857
upperback 8.91621 0.896163 -0.758667
thorax -0.230535 0.411744 -1.27801
lowerneck -10.0937 6.9655 0.946695
upperneck -15.2972 8.83839 -4.6144
head -2.97059 4.47346 -1.59893
rclavicle 2.3059e-014 1.74931e-014
rhumerus 24.8713 53.8266 -89.3325
rradius 39.5512
rwrist -37.5975
rhand -38.8085 5.09372
rfingers 7.12502
rthumb -11.819 -24.5528
lclavicle 2.3059e-014 1.74931e-014
lhumerus 32.8295 -4.0329 87.7272
lradius 32.5769
lwrist 46.5419
lhand -37.3794 34.3126
lfingers 7.12502
lthumb -10.4407 64.0333
rfemur -14.9523 2.78182 22.9265
rtibia 21.6905
rfoot -18.2005 -14.8056
rtoes -7.01908
lfemur -43.9937 15.1802 -19.4
ltibia 37.269
lfoot -5.22052 4.97457
ltoes 2.72165
425
root 10.9479 17.4682 -2.39384 18.5117 -25.8254 -8.15766
lowerback 17.6873 0.703938 0.527479
upperback 9.04647 0.804952 -0.785768
thorax -0.220264 0.363017 -1.26377
lowerneck -10.3028 7.13319 0.983878
upperneck -15.1888 9.05896 -4.69515
head -2.88616 4.58367 -1.61416
rclavicle 2.14687e-014 -1.35174e-014
rhumerus 24.3468 54.0678 -89.7505
rradius 39.445
rwrist -38.0092
rhand -37.9725 4.70262
rfingers 7.12502
rthumb -11.0127 -24.9885
lclavicle 2.14687e-014 -1.35174e-014
lhumerus 32.7729 -2.93109 88.5786
lradius 31.0918
lwrist 45.9007
lhand -37.1407 33.5875
lfingers 7.12502
lthumb -10.2104 63.3198
rfemur -15.5782 3.04089 23.1874
rtibia 21.6944
rfoot -18.2804 -14.6027
rtoes -5.29052
lfemur -44.7363 15.5292 -19.3159
ltibia 37.4159
lfoot -5.13114 4.82496
ltoes 2.11966
426
root 10.9708 17.4651 -2.36524 18.892 -25.9243 -8.14516
lowerback 18.2142 0.591483 0.203573
upperback 9.17216 0.598769 -0.928175
thorax -0.363927 0.250323 -1.19992
lowerneck -10.2833 7.18913 0.677445
upperneck -15.3579 9.18765 -4.37999
head -2.97529 4.65892 -1.47067
rclavicle -3.18055e-014 -7.15625e-015
rhumerus 23.922 54.3965 -90.0902
rradius 39.2797
rwrist -38.3635
rhand -37.5276 3.34572
rfingers 7.12502
rthumb -10.5836 -26.3678
lclavicle -3.18055e-014 -7.15625e-015
lhumerus 32.5579 -1.99133 89.1997
lradius 29.8389
lwrist 45.527
lhand -36.6798 33.0122
lfingers 7.12502
lthumb -9.76569 62.7658
rfemur -15.9046 2.85919 23.0365
rtibia 21.5658
rfoot -18.1426 -14.4162
rtoes -5.51952
lfemur -45.1905 15.6145 -19.6079
ltibia 37.5787
lfoot -5.18404 4.7692
ltoes 1.29836
427
root 10.9918 17.4739 -2.32906 19.1751 -26.1128 -7.94537
lowerback 18.5805 0.522238 -0.156808
upperback 9.3727 0.436467 -1.20199
thorax -0.340183 0.161828 -1.25831
lowerneck -10.8833 7.14189 1.06611
upperneck -14.9385 9.07426 -4.59454
head -2.70362 4.57938 -1.5594
rclavicle 4.37326e-014 -4.05521e-014
rhumerus 23.8716 55.0651 -89.9869
rradius 39.0289
rwrist -39.0233
rhand -37.5794 2.86121
rfingers 7.12502
rthumb -10.6335 -26.8497
lclavicle 4.37326e-014 -4.05521e-014
lhumerus 32.5386 -1.49726 89.4293
lradius 28.5112
lwrist 45.4965
lhand -36.3762 33.1149
lfingers 7.12502
lthumb -9.47281 62.882
rfemur -16.162 2.6576 22.7042
rtibia 21.3762
rfoot -17.7851 -14.4264
rtoes -7.14039
lfemur -45.5845 15.7027 -20.0614
ltibia 37.7782
lfoot -5.29079 4.70321
ltoes 1.23284
428
root 11.0064 17.4853 -2.29294 19.9689 -26.2627 -8.40136
lowerback 18.5915 0.467628 -0.0486333
upperback 9.53472 0.375267 -1.30092
thorax -0.170933 0.135696 -1.41255
lowerneck -11.5083 7.27813 1.96278
upperneck -14.423 9.10223 -5.50554
head -2.33892 4.55805 -1.94622
rclavicle 2.70347e-014 3.65764e-014
rhumerus 23.6271 55.6762 -89.9897
rradius 38.8578
rwrist -39.3099
rhand -37.926 2.99786
rfingers 7.12502
rthumb -10.9679 -26.6956
lclavicle 2.70347e-014 3.65764e-014
lhumerus 32.6025 -0.951747 89.6984
lradius 27.0402
lwrist 45.3604
lhand -36.0636 33.3702
lfingers 7.12502
lthumb -9.17113 63.1508
rfemur -16.6187 2.92224 22.9259
rtibia 21.103
rfoot -17.5944 -14.4151
rtoes -7.20502
lfemur -46.2681 16.0175 -19.9555
ltibia 37.9829
lfoot -5.3062 4.59726
ltoes 0.853993
429
root 11.0199 17.4807 -2.26053 20.6587 -26.4031 -8.75173
lowerback 18.7272 0.431871 -0.107994
upperback 9.62986 0.31353 -1.32538
thorax -0.139482 0.101704 -1.39447
lowerneck -11.5969 7.41739 2.1509
upperneck -14.3356 9.23449 -6.00867
head -2.25661 4.62476 -2.12767
rclavicle 7.15625e-015 -5.56597e-015
rhumerus 23.1232 55.8687 -90.3106
rradius 38.7481
rwrist -39.4656
rhand -37.7488 1.98366
rfingers 7.12502
rthumb -10.797 -27.7188
lclavicle 7.15625e-015 -5.56597e-015
lhumerus 32.5049 -0.0018931 90.4844
lradius 25.5958
lwrist 44.819
lhand -35.7953 33.2091
lfingers 7.12502
lthumb -8.91226 63.0009
rfemur -16.9863 3.03035 23.0899
rtibia 20.7521
rfoot -17.271 -14.4033
rtoes -8.47154
lfemur -46.9412 16.3748 -20.0251
ltibia 38.2288
lfoot -5.41304 4.5253
ltoes 0.534552
430
root 11.035 17.4723 -2.2286 21.056 -26.6388 -8.74153
lowerback 19.0058 0.424311 -0.377589
upperback 9.74416 0.248176 -1.49091
thorax -0.159992 0.0615902 -1.40674
lowerneck -11.5004 7.4463 2.04979
upperneck -14.4545 9.27204 -6.14827
head -2.30881 4.65533 -2.16438
rclavicle -1.35174e-014 1.98785e-014
rhumerus 22.7095 55.9407 -90.6629
rradius 38.5748
rwrist -40.0116
rhand -37.2011 0.947841
rfingers 7.12502
rthumb -10.2686 -28.7815
lclavicle -1.35174e-014 1.98785e-014
lhumerus 32.4004 1.3142 91.6547
lradius 24.543
lwrist 43.8911
lhand -35.7782 33.1852
lfingers 7.12502
lthumb -8.89577 62.9776
rfemur -17.2362 2.80978 22.9824
rtibia 20.4137
rfoot -16.6669 -14.3509
rtoes -11.019
lfemur -47.4076 16.5617 -20.3398
ltibia 38.4907
lfoot -5.53367 4.57495
ltoes 1.27843
431
root 11.0544 17.4667 -2.19345 21.5995 -26.8402 -8.94731
lowerback 19.1218 0.388557 -0.340155
upperback 9.9279 0.196138 -1.6769
thorax -0.020164 0.0394911 -1.61589
lowerneck -11.477 7.58644 2.22221
upperneck -14.66 9.41994 -6.42478
head -2.35479 4.73073 -2.28778
rclavicle 2.8625e-014 -3.97569e-014
rhumerus 22.1827 56.0407 -91.0832
rradius 38.4579
rwrist -40.4444
rhand -37.0515 1.00659
rfingers 7.12502
rthumb -10.1243 -28.7298
lclavicle 2.8625e-014 -3.97569e-014
lhumerus 32.4447 2.54455 92.6521
lradius 23.3698
lwrist 42.523
lhand -35.6452 32.4024
lfingers 7.12502
lthumb -8.7674 62.2003
rfemur -17.562 2.51563 23.065
rtibia 20.0837
rfoot -16.0847 -14.081
rtoes -13.1619
lfemur -47.896 16.6213 -20.3581
ltibia 38.7762
lfoot -5.69849 4.6946
ltoes 1.97969
432
root 11.0716 17.4653 -2.16287 22.1974 -27.0173 -9.17784
lowerback 19.2299 0.37633 -0.439903
upperback 10.0642 0.155676 -1.77644
thorax 0.0715596 0.01625 -1.6581
lowerneck -11.5152 7.74824 2.42154
upperneck -14.7686 9.59565 -6.70965
head -2.35412 4.81715 -2.4109
rclavicle 2.8625e-014 -2.94201e-014
rhumerus 21.5667 56.1757 -91.6012
rradius 38.2852
rwrist -40.73
rhand -37.0972 1.34553
rfingers 7.12502
rthumb -10.1684 -28.3887
lclavicle 2.8625e-014 -2.94201e-014
lhumerus 32.3658 3.50869 93.4109
lradius 22.4199
lwrist 41.802
lhand -35.2564 32.3445
lfingers 7.12502
lthumb -8.39225 62.1578
rfemur -17.916 2.37106 23.1366
rtibia 19.6953
rfoot -15.6734 -13.8332
rtoes -14.2903
lfemur -48.5259 16.7893 -20.4675
ltibia 39.0847
lfoot -5.91839 4.7347
ltoes 0.683624
433
root 11.0811 17.4623 -2.1354 22.794 -27.158 -9.60404
lowerback 19.4828 0.327344 -0.545409
upperback 10.0973 0.0649159 -1.86142
thorax -0.0229344 -0.0326413 -1.67293
lowerneck -11.529 7.89719 2.58351
upperneck -14.6554 9.79503 -6.64663
head -2.3 4.90867 -2.40519
rclavicle 2.54444e-014 2.54444e-014
rhumerus 20.8797 56.5876 -92.3257
rradius 38.1435
rwrist -41.1497
rhand -36.9554 1.02083
rfingers 7.12502
rthumb -10.0316 -28.7201
lclavicle 2.54444e-014 2.54444e-014
lhumerus 32.0176 4.5959 93.9078
lradius 21.5996
lwrist 41.2639
lhand -34.7126 32.5848
lfingers 7.12502
lthumb -7.86739 62.4184
rfemur -18.1525 2.51327 23.3909
rtibia 19.3667
rfoot -15.4701 -13.6196
rtoes -13.6334
lfemur -49.0957 17.0615 -20.3522
ltibia 39.3984
lfoot -6.00095 4.79411
ltoes -0.31507
